<?xml version="1.0" encoding="utf-8"?>
<!-- Generator: Adobe Illustrator 27.4.0, SVG Export Plug-In . SVG Version: 6.00 Build 0)  -->
<svg version="1.1" id="Layer_1" xmlns="http://www.w3.org/2000/svg" xmlns:xlink="http://www.w3.org/1999/xlink" x="0px" y="0px"
	 viewBox="0 0 700 700" style="enable-background:new 0 0 700 700;" xml:space="preserve">
<style type="text/css">
	.st0{fill:#FF5500;}
	.st1{fill:#6A3184;}
	.st2{fill:#FFFFFF;}
</style>
<g>
	<path class="st0" d="M183.6,295.1c19.5-24.5,48.2-40.3,79.4-43.6c3.6-9.2,8.5-17.8,14.5-25.8c9.1-12.1,20.3-22.1,33.4-29.7
		c2.6-1.5,5.2-2.9,7.8-4.1c-11.2-37.6-46-64.9-87.1-64.9c-50.2,0-90.9,40.7-90.9,90.9C140.6,250.5,157.8,279.1,183.6,295.1z"/>
</g>
<path class="st1" d="M368.6,482.8v45.5v0c-0.5,7-6.3,12.3-13.3,12.3s-12.8-5.4-13.3-12.3v-45.5c0.5-7,6.3-12.3,13.3-12.3
	S368.1,475.9,368.6,482.8L368.6,482.8z"/>
<path class="st1" d="M285.8,469.6c-7.3,0-13.2,5.9-13.3,13.2v108c0,7.3,5.9,13.3,13.3,13.3c7.3,0,13.3-5.9,13.3-13.3v-108
	C299,475.6,293.1,469.7,285.8,469.6z"/>
<path class="st1" d="M216.2,469.6c-7.2,0.1-13.1,6-13.1,13.2v45.5v0c0,7.3,5.9,13.3,13.3,13.3c7.3,0,13.3-5.9,13.3-13.3v-45.5
	c0-3.5-1.4-6.9-4-9.4C223.1,471,219.7,469.6,216.2,469.6L216.2,469.6z"/>
<path class="st1" d="M424.6,469.6L424.6,469.6c-7.2,0.1-13,6-13.1,13.2v108c0,7.3,5.9,13.3,13.3,13.3c7.3,0,13.3-5.9,13.3-13.3v-108
	c-0.1-7.3-6-13.1-13.3-13.2H424.6z"/>
<path class="st1" d="M494.1,469.6L494.1,469.6c-7.2,0.1-13.1,6-13.1,13.2v45.5v0c0,7.3,5.9,13.3,13.3,13.3c7.3,0,13.3-5.9,13.3-13.3
	v-45.5c0-7.2-5.9-13.1-13.1-13.2L494.1,469.6z"/>
<path class="st2" d="M501.2,281.4L501.2,281.4c-1.8-14.8-9-28.5-20.1-38.5c-11.2-9.9-25.6-15.5-40.5-15.6c-4.7,0-9.4,0.5-14,1.6
	c-11.9-21.9-32.2-38.1-56.2-44.9c-24-6.7-49.8-3.5-71.4,9.1c-21.6,12.6-37.1,33.3-43.2,57.5h-2.5c-34.7,0-66.7,18.5-84.1,48.5
	c-17.3,30-17.3,67,0,97.1c17.3,30,49.4,48.5,84.1,48.5h216.8c26.5,0,51.4-12.4,67.4-33.5c16-21.1,21.2-48.5,14.1-74
	C544.5,311.8,525.8,291.1,501.2,281.4L501.2,281.4z"/>
</svg>
